<?xml version="1.0" standalone="no"?>
<!DOCTYPE svg PUBLIC "-//W3C//DTD SVG 20010904//EN"
 "http://www.w3.org/TR/2001/REC-SVG-20010904/DTD/svg10.dtd">
<svg version="1.0" xmlns="http://www.w3.org/2000/svg"
 width="1024.000000pt" height="1024.000000pt" viewBox="0 0 1024.000000 1024.000000"
 preserveAspectRatio="xMidYMid meet">
<metadata>
Created by potrace 1.11, written by Peter Selinger 2001-2013
</metadata>
<g transform="translate(0.000000,1024.000000) scale(0.100000,-0.100000)"
fill="#000000" stroke="none">
<path d="M2985 9861 c-182 -121 -335 -225 -342 -230 -7 -6 -17 -11 -23 -11 -5
0 -10 -4 -10 -10 0 -5 -7 -10 -15 -10 -8 0 -15 -4 -15 -10 0 -5 -7 -10 -15
-10 -8 0 -15 -4 -15 -10 0 -5 -7 -10 -15 -10 -8 0 -15 -4 -15 -10 0 -5 -5 -10
-10 -10 -6 0 -16 -5 -23 -10 -7 -6 -66 -46 -132 -90 -66 -43 -125 -83 -130
-87 -6 -4 -123 -82 -260 -173 -137 -91 -259 -173 -269 -182 -11 -10 -26 -18
-33 -18 -7 0 -13 -4 -13 -10 0 -5 -7 -10 -15 -10 -8 0 -15 -4 -15 -10 0 -5 -7
-10 -15 -10 -8 0 -15 -4 -15 -10 0 -5 -7 -10 -15 -10 -7 0 -18 -6 -22 -13 -4
-7 -25 -21 -45 -32 -21 -11 -38 -22 -38 -26 0 -3 -16 -14 -35 -25 -20 -10 -33
-24 -31 -31 6 -14 306 -466 315 -473 3 -3 13 -17 21 -32 27 -49 193 -293 204
-300 6 -4 7 -8 3 -8 -4 0 -3 -6 3 -12 22 -26 270 -401 270 -408 0 -5 3 -10 8
-12 7 -3 343 -503 351 -523 2 -5 9 -15 15 -22 30 -34 36 -43 29 -43 -4 0 -3
-4 2 -8 14 -10 75 -101 75 -111 0 -5 3 -11 8 -13 4 -1 52 -70 107 -153 54 -82
102 -152 105 -155 3 -3 11 -17 19 -32 8 -15 22 -37 33 -47 10 -11 18 -24 18
-29 0 -5 7 -15 15 -22 8 -7 13 -16 10 -20 -3 -5 -1 -10 3 -12 5 -1 66 -90 137
-195 70 -106 134 -193 142 -193 16 0 76 39 81 52 2 5 8 6 13 2 5 -3 9 0 9 5 0
6 7 11 15 11 8 0 15 4 15 9 0 5 8 12 19 16 10 3 31 17 47 30 16 14 34 25 41
25 6 0 13 3 15 8 3 7 894 604 913 611 5 2 12 7 15 10 11 13 371 251 379 251 5
0 11 3 13 8 5 11 66 52 78 52 5 0 10 4 10 8 0 5 12 15 28 23 15 8 29 16 32 19
4 4 152 105 192 131 11 7 -53 111 -98 162 -6 7 -14 22 -18 34 -4 11 -15 28
-26 38 -11 10 -20 24 -20 32 0 7 -4 13 -8 13 -5 0 -14 10 -21 23 -14 27 77
-110 -807 1213 -924 1382 -884 1324 -892 1324 -4 0 -156 -99 -337 -219z"/>
<path d="M5700 9684 c-19 -13 -43 -29 -54 -36 -10 -7 -36 -25 -57 -40 -21 -16
-43 -28 -47 -28 -5 0 -17 -8 -28 -17 -10 -10 -77 -56 -149 -103 -71 -47 -134
-89 -140 -93 -5 -5 -91 -62 -190 -128 -201 -133 -211 -140 -230 -154 -11 -8 7
-41 85 -160 54 -82 102 -154 107 -160 5 -5 35 -50 68 -100 73 -110 73 -110
110 -169 17 -27 35 -53 40 -60 13 -14 149 -218 154 -231 2 -5 7 -12 10 -15 4
-3 26 -34 49 -70 23 -36 46 -70 51 -76 4 -5 14 -21 21 -35 7 -13 16 -26 20
-29 3 -3 17 -23 30 -45 13 -22 26 -42 29 -45 13 -12 51 -70 51 -78 0 -5 9 -17
20 -27 11 -10 20 -24 20 -32 0 -7 4 -13 9 -13 5 0 13 -9 16 -21 4 -12 14 -29
23 -39 10 -10 25 -30 35 -44 l18 -26 42 28 c23 15 51 35 61 45 11 9 26 17 33
17 7 0 13 4 13 8 0 5 12 15 28 23 15 8 32 19 39 24 7 6 19 16 28 23 8 7 15 9
15 5 0 -4 6 -1 13 8 7 9 17 18 23 20 6 2 110 72 232 154 122 83 231 155 242
161 11 6 29 19 40 29 11 10 20 15 20 11 0 -4 12 5 27 19 15 14 33 25 40 25 7
0 13 4 13 9 0 5 9 11 21 14 20 5 20 6 -7 49 -16 24 -40 59 -55 78 -14 19 -28
40 -30 45 -7 18 -84 130 -91 133 -5 2 -8 9 -8 16 0 7 -9 21 -20 31 -11 10 -20
24 -20 32 0 7 -4 13 -9 13 -5 0 -15 12 -22 28 -17 32 -109 172 -126 190 -6 6
-15 21 -18 32 -3 11 -11 20 -16 20 -5 0 -9 4 -9 10 0 8 -56 96 -70 110 -3 3
-9 12 -15 21 -5 10 -25 38 -42 63 -18 26 -33 50 -33 53 0 3 -12 22 -27 42 -16
20 -32 44 -38 53 -5 9 -41 63 -80 120 -38 57 -71 109 -73 116 -2 6 -8 12 -13
12 -5 0 -9 5 -9 10 0 6 -18 35 -40 64 -22 29 -40 57 -40 62 0 5 -13 23 -28 41
l-27 32 -35 -25z"/>
<path d="M8540 9052 c0 -4 -9 -12 -19 -17 -11 -6 -58 -36 -105 -67 -48 -32
-91 -58 -96 -58 -4 0 -10 -4 -12 -9 -2 -7 -206 -147 -299 -206 -9 -5 -44 -29
-77 -52 -34 -24 -66 -43 -71 -43 -6 0 -11 -4 -11 -10 0 -5 -15 -16 -34 -25
-18 -9 -42 -24 -52 -33 -11 -9 -32 -24 -47 -32 -16 -8 -40 -24 -53 -37 -13
-12 -24 -20 -24 -18 0 3 -49 -29 -110 -70 -60 -41 -114 -75 -119 -75 -5 0 -11
-4 -13 -9 -1 -4 -64 -48 -138 -97 -74 -49 -137 -91 -140 -94 -3 -3 -26 -19
-52 -35 -27 -17 -48 -34 -48 -38 0 -5 -4 -5 -10 -2 -5 3 -10 1 -10 -4 0 -6 -4
-11 -9 -11 -11 0 -265 -171 -269 -182 -2 -4 -8 -8 -13 -8 -11 0 -223 -141
-227 -152 -2 -4 -7 -8 -12 -8 -8 0 -368 -237 -403 -266 -9 -8 -22 -14 -27 -14
-6 0 -10 -4 -10 -10 0 -5 -4 -10 -8 -10 -7 0 -405 -261 -437 -287 -5 -4 -75
-51 -155 -103 -80 -52 -151 -101 -158 -107 -7 -7 -17 -13 -22 -13 -5 0 -15 -6
-22 -12 -24 -23 -108 -78 -118 -78 -6 0 -10 -3 -10 -7 0 -5 -23 -21 -50 -38
-28 -16 -50 -33 -50 -37 0 -4 -5 -8 -12 -8 -6 0 -26 -11 -44 -25 -18 -14 -37
-25 -42 -25 -6 0 -12 -3 -14 -7 -5 -12 -307 -213 -318 -213 -6 0 -10 -4 -10
-8 0 -4 -26 -23 -57 -42 -32 -19 -69 -45 -82 -57 -14 -12 -28 -20 -33 -17 -4
3 -8 0 -8 -6 0 -6 -8 -14 -18 -18 -24 -10 -196 -125 -200 -134 -2 -5 -8 -8
-14 -8 -6 0 -28 -14 -49 -31 -21 -17 -39 -28 -39 -24 0 3 -6 1 -12 -5 -44 -37
-62 -50 -68 -50 -3 0 -15 -8 -26 -18 -10 -10 -23 -20 -29 -22 -11 -3 -87 -52
-95 -60 -13 -13 -266 -178 -274 -178 -5 0 -12 -5 -15 -10 -3 -6 -58 -44 -121
-86 -63 -41 -119 -79 -125 -84 -5 -4 -37 -26 -70 -47 -33 -22 -61 -43 -63 -47
-2 -5 -7 -8 -12 -8 -11 0 -254 -162 -258 -172 -2 -5 -8 -8 -13 -8 -12 0 -132
-82 -137 -92 -2 -5 -10 -8 -18 -8 -8 0 -14 -4 -14 -10 0 -5 -4 -10 -9 -10 -5
0 -37 -19 -71 -42 -34 -24 -69 -47 -78 -53 -10 -5 -19 -13 -22 -16 -3 -3 -18
-14 -35 -23 -16 -9 -46 -28 -65 -42 -19 -13 -42 -29 -50 -34 -8 -6 -75 -51
-149 -100 -74 -50 -138 -90 -143 -90 -4 0 -8 -4 -8 -9 0 -5 -9 -13 -20 -16
-11 -3 -26 -12 -32 -18 -7 -7 -67 -48 -133 -91 -66 -44 -121 -83 -123 -88 -2
-4 -8 -8 -13 -8 -6 0 -38 -19 -73 -42 -34 -24 -69 -47 -78 -53 -71 -46 -224
-150 -228 -155 -3 -4 -21 -15 -40 -26 -19 -10 -37 -22 -40 -25 -12 -13 -192
-129 -201 -129 -5 0 -9 -4 -9 -9 0 -4 -28 -26 -61 -47 -100 -64 -105 -67 -186
-121 -43 -29 -83 -57 -90 -63 -7 -5 -15 -10 -18 -10 -4 0 -13 -6 -20 -12 -31
-28 -45 -38 -50 -38 -8 1 -159 -102 -167 -114 -5 -7 -8 -7 -8 -1 0 7 -3 7 -8
0 -11 -15 -96 -70 -105 -67 -4 1 -7 -2 -7 -7 0 -8 -117 -89 -145 -100 -5 -2
-12 -7 -15 -10 -3 -4 -44 -33 -92 -65 l-86 -57 139 -210 c76 -115 139 -213
139 -218 0 -5 4 -11 8 -13 11 -4 72 -94 72 -106 0 -6 4 -12 8 -14 11 -4 92
-127 92 -139 0 -5 4 -9 8 -9 5 0 15 -12 23 -28 8 -15 16 -29 20 -32 3 -3 16
-23 29 -45 13 -22 27 -42 30 -45 3 -3 21 -30 40 -60 19 -30 37 -57 40 -60 3
-3 17 -23 31 -45 14 -22 39 -60 55 -84 16 -24 33 -51 39 -60 5 -9 20 -30 32
-48 13 -17 23 -34 23 -37 0 -3 9 -17 21 -30 12 -13 20 -27 20 -30 -1 -4 3 -12
9 -19 11 -12 350 -519 350 -523 0 -1 52 -79 115 -174 63 -95 115 -176 115
-180 0 -5 3 -10 8 -12 4 -1 23 -28 42 -58 19 -30 37 -57 40 -60 4 -3 15 -19
25 -37 16 -28 21 -30 39 -21 25 13 129 80 136 88 3 3 17 11 33 19 15 8 27 18
27 23 0 4 4 8 9 8 7 0 410 266 436 288 6 5 15 11 20 13 20 8 430 284 433 292
2 4 10 7 18 7 8 0 14 5 14 10 0 6 4 10 8 10 8 0 563 367 589 390 7 5 17 10 23
10 5 0 10 5 10 10 0 6 4 10 9 10 5 0 35 18 67 40 161 109 650 436 659 439 6 2
33 21 62 43 29 21 54 38 57 38 3 0 31 18 63 40 32 22 66 46 77 53 10 6 24 17
31 24 7 7 15 9 19 6 3 -4 6 -1 6 5 0 7 7 12 15 12 8 0 15 5 15 10 0 6 4 10 10
10 7 0 96 57 135 87 21 16 210 141 220 144 5 2 20 14 34 27 13 12 30 22 37 22
8 0 14 5 14 10 0 6 7 10 15 10 8 0 15 3 15 8 0 4 17 16 37 27 20 11 41 25 47
30 6 6 36 26 66 45 30 19 64 43 74 52 11 10 25 18 32 18 7 0 14 3 16 8 4 10
128 92 139 92 5 0 9 3 9 8 0 4 16 16 35 26 19 11 35 23 35 28 0 4 6 8 14 8 8
0 21 6 28 13 25 22 77 57 87 57 5 0 11 4 13 8 4 11 97 72 109 72 5 0 9 5 9 10
0 6 6 10 14 10 8 0 16 3 18 8 4 10 127 92 137 92 5 0 11 4 13 8 3 8 127 92
135 92 2 0 11 6 18 12 35 31 45 38 45 31 0 -4 4 -3 8 2 7 11 867 587 887 594
5 2 12 7 15 10 9 13 341 231 350 231 5 0 13 6 17 14 4 7 22 21 38 30 42 23 69
40 75 47 3 3 44 31 91 62 48 31 93 62 101 69 7 7 20 14 28 16 8 2 17 7 20 11
9 12 310 211 319 211 5 0 11 4 13 8 2 5 44 36 93 68 50 32 92 62 93 67 2 4 7
7 12 7 9 0 194 123 223 148 9 8 17 11 17 6 0 -5 5 -1 11 9 5 9 14 17 19 17 5
0 54 31 108 69 55 38 104 70 108 72 5 2 49 31 97 64 49 33 97 64 108 70 10 5
19 13 19 17 0 5 4 8 9 8 6 0 55 31 110 70 56 38 101 67 101 64 0 -3 7 1 15 9
8 8 31 25 52 38 21 13 43 28 50 34 7 5 20 17 30 25 10 8 18 13 18 11 0 -7 369
241 377 253 4 6 8 7 8 3 0 -8 70 40 82 58 4 5 8 7 8 3 0 -3 79 47 176 113 97
65 181 119 185 119 5 0 9 4 9 9 0 5 9 13 20 16 11 3 20 12 20 19 0 13 -59 99
-72 104 -5 2 -8 9 -8 15 0 7 -11 24 -25 39 -14 15 -25 30 -25 32 0 5 -43 68
-125 181 -34 48 -136 192 -147 208 -7 11 -29 41 -48 68 -19 26 -57 80 -85 120
-27 40 -56 78 -63 86 -7 7 -10 13 -6 13 4 0 -2 10 -13 23 -34 37 -263 367
-263 378 0 5 -4 7 -10 4 -5 -3 -10 -1 -10 5 0 12 -140 213 -152 218 -5 2 -8 8
-8 13 0 6 -5 15 -11 22 -5 7 -37 50 -69 97 -33 47 -63 90 -68 95 -4 6 -23 33
-42 60 -18 28 -36 52 -39 55 -3 3 -10 12 -16 21 -13 21 -96 141 -107 154 -5 6
-38 53 -75 105 -37 52 -71 98 -76 101 -5 3 -8 8 -6 10 6 9 -96 139 -108 139
-7 0 -13 -3 -13 -8z"/>
<path d="M1055 8005 c-16 -13 -35 -24 -42 -25 -6 0 -13 -3 -15 -8 -1 -4 -97
-69 -212 -146 -116 -76 -215 -143 -221 -149 -8 -8 7 -39 59 -116 39 -59 74
-107 78 -109 5 -2 8 -10 8 -18 0 -8 5 -14 10 -14 6 0 10 -7 10 -15 0 -8 5 -15
10 -15 6 0 10 -5 10 -10 0 -6 5 -16 10 -23 6 -7 25 -34 43 -62 17 -27 37 -56
44 -63 6 -6 15 -21 18 -32 3 -11 11 -20 16 -20 5 0 9 -6 9 -14 0 -7 7 -19 15
-26 13 -11 44 6 198 108 100 67 187 125 193 130 6 5 30 22 55 37 24 16 47 32
50 37 3 5 8 9 10 7 2 -1 14 4 26 11 20 13 21 31 1 55 -5 6 -23 33 -41 60 -17
28 -37 56 -44 63 -7 7 -13 17 -13 22 0 5 -6 15 -13 22 -12 13 -68 94 -77 113
-9 18 -65 100 -77 113 -6 6 -15 21 -18 32 -3 11 -11 20 -16 20 -5 0 -9 7 -9
15 0 8 -4 15 -10 15 -5 0 -10 7 -10 15 0 22 -21 18 -55 -10z"/>
<path d="M1725 7030 c-50 -33 -94 -63 -100 -68 -28 -22 -438 -292 -445 -292
-5 0 -10 -4 -12 -8 -1 -5 -91 -67 -198 -138 -107 -71 -196 -132 -198 -136 -2
-5 -10 -8 -18 -8 -8 0 -14 -5 -14 -11 0 -5 -4 -8 -9 -5 -5 4 -11 3 -13 -1 -1
-5 -23 -21 -48 -38 -25 -16 -50 -34 -57 -40 -6 -5 -34 -23 -62 -40 -28 -16
-51 -33 -51 -37 0 -5 -4 -8 -10 -8 -10 0 -92 -54 -123 -82 -17 -14 -18 -19 -6
-32 27 -30 39 -45 39 -51 0 -3 34 -55 75 -115 41 -60 75 -114 75 -119 0 -5 4
-11 8 -13 4 -1 174 -253 377 -558 202 -305 375 -561 384 -567 12 -10 18 -10
31 2 9 8 21 15 27 15 6 0 13 3 15 8 3 6 287 199 313 212 13 6 67 42 80 53 6 5
127 86 270 181 512 339 720 480 727 490 6 8 -8 44 -23 56 -12 10 -86 125 -85
132 0 3 -8 17 -20 30 -12 13 -53 70 -91 128 -374 562 -658 986 -665 988 -4 2
-8 9 -8 15 0 7 -18 35 -38 64 l-38 52 -89 -59z"/>
<path d="M8462 5115 c-128 -85 -237 -155 -242 -155 -6 0 -10 -4 -10 -10 0 -5
-6 -10 -14 -10 -8 0 -16 -3 -18 -7 -1 -5 -70 -52 -153 -107 -82 -54 -178 -118
-212 -143 l-63 -44 128 -192 c70 -106 129 -194 132 -197 3 -3 19 -25 35 -50
17 -25 33 -46 38 -48 4 -2 7 -8 7 -12 0 -11 102 -164 113 -168 4 -2 7 -10 7
-18 0 -8 5 -14 10 -14 6 0 10 -5 10 -10 0 -6 5 -16 11 -23 5 -7 20 -27 32 -46
12 -19 30 -46 39 -60 10 -14 23 -36 29 -48 7 -13 16 -23 21 -23 4 0 8 -6 8
-14 0 -26 32 -27 66 -1 18 14 37 25 42 25 6 0 12 3 14 8 4 10 158 112 169 112
5 0 9 3 9 8 0 4 16 16 36 27 32 17 48 29 91 65 7 5 15 10 18 10 3 0 102 65
221 145 118 80 219 145 224 145 6 0 10 4 10 8 0 4 14 16 30 25 17 10 30 22 30
27 0 11 -142 224 -152 228 -4 2 -8 7 -8 12 0 9 -77 126 -97 148 -7 7 -13 18
-13 23 0 6 -6 17 -12 24 -27 30 -38 44 -38 50 0 3 -5 11 -10 18 -6 7 -34 48
-63 92 -28 44 -55 82 -59 83 -5 2 -8 8 -8 13 0 5 -21 39 -48 76 -26 38 -53 80
-61 96 -8 15 -18 27 -23 27 -4 0 -8 6 -8 13 0 8 -8 21 -18 30 -17 16 -32 7
-250 -138z"/>
<path d="M7150 4244 c-19 -14 -43 -31 -53 -39 -9 -8 -20 -15 -22 -15 -6 0
-217 -140 -225 -149 -10 -12 -90 -61 -99 -61 -5 0 -11 -4 -13 -8 -3 -8 -665
-452 -674 -452 -3 0 -17 -11 -32 -25 -15 -14 -32 -25 -39 -25 -7 0 -13 -4 -13
-10 0 -5 -5 -10 -12 -10 -6 0 -26 -11 -44 -25 -18 -14 -35 -25 -39 -25 -3 0
-18 -11 -33 -25 -15 -14 -30 -25 -34 -25 -5 0 -39 -22 -78 -50 -39 -27 -72
-50 -74 -50 -3 0 -40 -25 -84 -55 -44 -30 -85 -55 -90 -55 -6 0 -12 -4 -14 -8
-1 -5 -48 -39 -104 -76 l-101 -67 71 -106 c96 -143 104 -155 117 -180 7 -13
15 -23 19 -23 4 0 13 -13 20 -30 7 -16 16 -30 21 -30 5 0 9 -6 9 -13 0 -7 8
-22 18 -33 28 -32 62 -82 62 -92 0 -5 9 -17 20 -27 11 -10 20 -24 20 -32 0 -7
4 -13 8 -13 8 0 40 -50 40 -63 1 -5 10 -17 21 -26 12 -10 21 -21 21 -25 0 -4
12 -23 26 -42 15 -19 22 -34 18 -34 -5 0 -1 -5 9 -11 9 -5 17 -17 17 -24 0 -8
4 -15 9 -15 5 0 16 -15 24 -32 9 -18 25 -43 36 -55 12 -12 21 -25 21 -28 0 -3
16 -28 35 -55 19 -27 35 -54 35 -59 0 -5 4 -11 8 -13 8 -3 72 -95 72 -104 0
-3 9 -14 20 -26 11 -12 26 -34 32 -50 7 -15 16 -28 20 -28 5 0 8 -5 8 -10 0
-6 9 -20 20 -32 10 -11 26 -36 35 -54 9 -19 20 -34 25 -34 6 0 10 -5 10 -11 0
-6 11 -25 25 -43 14 -18 25 -38 25 -44 0 -7 5 -12 10 -12 6 0 10 -5 10 -10 0
-6 9 -20 20 -32 10 -11 26 -36 35 -54 9 -19 20 -34 25 -34 6 0 10 -4 10 -10 0
-10 38 -70 70 -110 11 -14 20 -29 20 -33 0 -4 8 -17 18 -28 11 -10 25 -32 33
-47 8 -15 21 -35 30 -45 9 -9 22 -30 30 -45 8 -15 16 -29 20 -32 3 -3 68 -99
145 -215 76 -116 142 -211 147 -213 4 -2 7 -9 7 -16 0 -7 11 -26 25 -42 14
-16 28 -37 31 -46 3 -10 10 -18 15 -18 5 0 9 -4 9 -10 0 -5 43 -74 97 -152 53
-79 97 -144 98 -145 0 -1 23 13 51 32 27 19 57 38 67 41 9 4 17 10 17 15 0 5
7 9 15 9 8 0 15 4 15 8 0 5 10 14 23 21 38 20 323 207 337 221 15 15 71 50 80
50 5 0 10 5 10 10 0 6 6 10 14 10 8 0 16 3 18 8 5 10 66 52 77 52 5 0 11 3 13
8 2 4 41 32 88 62 47 30 87 57 90 60 3 3 30 21 60 40 30 19 57 37 60 40 3 3
82 56 175 118 94 62 177 117 185 122 8 6 88 60 178 120 90 61 168 110 173 110
5 0 9 3 9 8 0 4 25 22 55 40 30 18 55 38 55 43 0 6 4 8 9 5 4 -3 18 3 31 14
l22 19 -38 58 c-21 32 -41 60 -44 63 -3 3 -11 17 -19 33 -8 15 -18 27 -23 27
-4 0 -8 7 -8 15 0 8 -4 15 -10 15 -5 0 -10 5 -10 12 0 6 -11 26 -25 44 -14 18
-25 37 -25 43 0 6 -4 11 -10 11 -5 0 -16 15 -25 34 -9 18 -25 43 -35 54 -11
12 -20 24 -20 27 0 8 -44 69 -52 73 -5 2 -8 10 -8 18 0 8 -5 14 -12 14 -6 0
-9 3 -5 6 3 3 -3 16 -15 28 -11 11 -24 30 -29 41 -14 31 -32 58 -66 99 -7 8
-13 20 -13 26 0 5 -4 10 -10 10 -5 0 -10 4 -10 10 0 11 -62 103 -72 108 -5 2
-8 8 -8 13 0 10 -35 62 -57 86 -6 7 -15 22 -18 33 -3 11 -11 20 -16 20 -5 0
-9 5 -9 10 0 9 -35 65 -50 80 -15 15 -50 71 -50 80 0 5 -4 10 -10 10 -5 0 -10
4 -10 9 0 4 -28 50 -62 100 -35 50 -68 99 -73 109 -14 23 -88 135 -98 147 -9
11 -86 128 -102 153 -15 25 -49 75 -58 87 -18 23 -107 157 -107 161 0 3 -18
29 -40 59 -22 30 -40 57 -40 61 0 3 -13 23 -30 44 -16 21 -30 43 -30 49 0 6
-4 11 -10 11 -5 0 -10 5 -10 10 0 6 -12 28 -27 49 -16 21 -34 47 -40 57 -7 11
-69 104 -138 208 -69 104 -125 190 -125 193 0 4 -13 20 -37 48 -7 7 -13 17
-13 20 0 14 -42 65 -53 64 -7 0 -28 -12 -47 -25z"/>
<path d="M4739 2634 c-7 -9 -20 -19 -29 -23 -8 -3 -165 -106 -347 -228 -183
-123 -337 -223 -342 -223 -5 0 -11 -7 -15 -15 -3 -8 -12 -15 -20 -15 -8 0 -16
-3 -18 -8 -1 -4 -27 -23 -56 -41 -30 -19 -59 -39 -65 -46 -7 -6 -15 -12 -20
-13 -8 -2 -59 -33 -67 -42 -3 -3 -102 -70 -220 -149 -118 -79 -219 -147 -223
-151 -8 -7 308 -492 325 -498 4 -2 8 -8 8 -14 0 -6 11 -26 25 -44 14 -18 25
-37 25 -43 0 -6 3 -11 8 -11 4 0 20 -23 37 -50 16 -28 33 -50 37 -50 4 0 8 -5
8 -10 0 -8 135 -215 155 -238 3 -3 516 338 548 364 9 8 20 14 22 14 7 0 88 52
95 61 3 3 73 51 155 105 83 54 152 102 153 106 2 5 10 8 17 8 8 0 20 6 27 13
7 7 87 62 178 122 91 61 171 116 178 123 7 6 18 12 23 12 5 0 15 5 22 10 7 6
21 17 31 24 18 12 11 24 -103 195 -66 100 -121 186 -121 190 0 5 -4 11 -9 13
-5 2 -35 44 -66 93 -32 50 -62 92 -67 93 -4 2 -6 8 -2 13 3 5 0 9 -5 9 -6 0
-11 4 -11 10 0 5 -18 35 -40 67 -22 32 -45 65 -50 73 -5 8 -32 48 -60 88 -27
41 -50 75 -50 78 0 10 -36 44 -46 44 -6 0 -18 -7 -25 -16z"/>
<path d="M2991 1447 c-36 -23 -72 -46 -80 -52 -48 -30 -198 -131 -208 -140 -7
-5 -48 -32 -92 -60 -87 -54 -98 -67 -76 -89 8 -8 15 -17 15 -21 0 -6 41 -67
51 -75 3 -3 12 -16 19 -29 7 -14 17 -30 22 -35 23 -29 59 -83 64 -98 4 -10 10
-18 15 -18 5 0 9 -4 9 -8 0 -8 117 -189 142 -219 10 -13 68 11 68 28 0 6 4 8
9 4 6 -3 14 3 20 12 6 10 11 14 11 10 0 -4 25 11 55 33 30 22 56 40 59 40 3 0
50 32 106 70 56 39 103 70 106 70 2 0 30 19 62 43 l58 42 -23 35 c-14 19 -31
44 -39 55 -7 11 -28 43 -46 70 -18 28 -36 55 -40 60 -5 6 -30 44 -58 85 -27
41 -53 80 -57 85 -5 6 -24 35 -43 65 -33 52 -54 80 -62 80 -2 0 -32 -19 -67
-43z"/>
</g>
</svg>
